<svg width="31" height="31" viewBox="0 0 31 31" fill="none" xmlns="http://www.w3.org/2000/svg">
<path d="M26.1562 8.23437H16.1527L13.0043 4.68754C12.7763 4.43119 12.4965 4.22618 12.1834 4.08611C11.8702 3.94603 11.5309 3.87407 11.1879 3.875H4.84375C4.20143 3.875 3.58542 4.13016 3.13123 4.58435C2.67704 5.03854 2.42188 5.65455 2.42188 6.29687V24.2938C2.42284 24.9159 2.6704 25.5123 3.1103 25.9522C3.5502 26.3921 4.14656 26.6397 4.76867 26.6406H26.264C26.8776 26.64 27.4658 26.396 27.8996 25.9621C28.3335 25.5283 28.5775 24.9401 28.5781 24.3265V10.6562C28.5781 10.0139 28.323 9.39791 27.8688 8.94372C27.4146 8.48953 26.7986 8.23437 26.1562 8.23437ZM5.32812 6.78125H10.9723L12.2644 8.23437H5.32812V6.78125ZM25.6719 23.7344H5.32812V11.1406H25.6719V23.7344Z" fill="white"/>
</svg>
