<svg width="36" height="36" viewBox="0 0 36 36" fill="none" xmlns="http://www.w3.org/2000/svg">
<path d="M4.49999 19.5H5.99999V30C5.99999 31.6545 7.34549 33 8.99999 33H27C28.6545 33 30 31.6545 30 30V19.5H31.5C31.7966 19.4999 32.0866 19.4119 32.3332 19.2471C32.5798 19.0823 32.772 18.848 32.8855 18.574C32.999 18.2999 33.0287 17.9984 32.9709 17.7074C32.913 17.4165 32.7702 17.1493 32.5605 16.9395L19.0605 3.4395C18.9213 3.30008 18.756 3.18947 18.574 3.11401C18.3921 3.03854 18.197 2.99969 18 2.99969C17.803 2.99969 17.6079 3.03854 17.4259 3.11401C17.244 3.18947 17.0787 3.30008 16.9395 3.4395L3.43949 16.9395C3.22977 17.1493 3.08696 17.4165 3.02911 17.7074C2.97126 17.9984 3.00096 18.2999 3.11447 18.574C3.22797 18.848 3.42018 19.0823 3.6668 19.2471C3.91341 19.4119 4.20336 19.4999 4.49999 19.5ZM15 30V22.5H21V30H15ZM18 6.621L27 15.621V22.5L27.0015 30H24V22.5C24 20.8455 22.6545 19.5 21 19.5H15C13.3455 19.5 12 20.8455 12 22.5V30H8.99999V15.621L18 6.621Z" fill="white"/>
</svg>
