<svg width="60" height="60" viewBox="0 0 60 60" fill="none" xmlns="http://www.w3.org/2000/svg">
<path d="M54.85 32.775L52.225 24.725C52.225 24.65 52.2 24.575 52.175 24.5L46.9 8.3C46.752 7.8867 46.481 7.5286 46.1235 7.27386C45.7659 7.01911 45.339 6.87993 44.9 6.875C44 6.875 43.2 7.5 42.925 8.325L37.925 23.75H22.1L17.075 8.325C16.9357 7.90901 16.6711 7.54632 16.3175 7.2867C15.9639 7.02709 15.5386 6.88327 15.1 6.875C14.175 6.875 13.375 7.5 13.1 8.325L7.825 24.55V24.575L5.15 32.775C4.75 34.025 5.175 35.375 6.25 36.125L29.3 52.9C29.725 53.2 30.275 53.2 30.7 52.875L53.75 36.125C54.825 35.375 55.25 34.025 54.85 32.775ZM20.375 26.125L26.8 45.9L11.375 26.125M33.2 45.925L39.375 26.95L39.625 26.125H48.65L34.675 44.025M44.925 9.85L49.45 23.75H40.4M37.15 26.125L32.675 39.9L30 48.1L22.85 26.125M15.075 9.85L19.6 23.75H10.575M7.625 34.225C7.4 34.05 7.3 33.75 7.4 33.5L9.375 27.425L23.925 46.05M52.375 34.225L36.1 46.05L36.15 45.975L50.625 27.425L52.6 33.5C52.7 33.75 52.6 34.05 52.375 34.225Z" fill="white"/>
</svg>
