<svg width="34" height="34" viewBox="0 0 34 34" fill="none" xmlns="http://www.w3.org/2000/svg">
<path d="M17 21.25C18.1475 21.25 19.125 20.825 19.9891 19.9892C20.825 19.125 21.25 18.1475 21.25 17C21.25 15.8525 20.825 14.875 19.9891 14.0108C19.125 13.175 18.1475 12.75 17 12.75C15.8525 12.75 14.875 13.175 14.0108 14.0108C13.175 14.875 12.75 15.8525 12.75 17C12.75 18.1475 13.175 19.125 14.0108 19.9892C14.875 20.825 15.8525 21.25 17 21.25ZM17 2.83334C20.8958 2.83334 24.225 4.25 26.9875 7.0125C29.75 9.775 31.1666 13.1042 31.1666 17V19.0542C31.1666 20.4708 30.6708 21.675 29.75 22.6667C28.7583 23.6158 27.625 24.0833 26.2083 24.0833C24.5083 24.0833 23.1058 23.375 22.0433 21.9583C20.6266 23.375 18.955 24.0833 17 24.0833C15.0591 24.0833 13.3875 23.375 11.985 22.015C10.625 20.6125 9.91665 18.955 9.91665 17C9.91665 15.0592 10.625 13.3875 11.985 11.985C13.3875 10.625 15.0591 9.91667 17 9.91667C18.955 9.91667 20.6125 10.625 22.015 11.985C23.375 13.3875 24.0833 15.0592 24.0833 17V19.0542C24.0833 19.635 24.31 20.145 24.735 20.5842C25.16 21.0233 25.6558 21.25 26.2083 21.25C26.8033 21.25 27.2991 21.0233 27.7241 20.5842C28.1491 20.145 28.3333 19.635 28.3333 19.0542V17C28.3333 13.8975 27.2425 11.2342 25.0041 8.99584C22.7658 6.7575 20.1025 5.66667 17 5.66667C13.8975 5.66667 11.2341 6.7575 8.99581 8.99584C6.75748 11.2342 5.66665 13.8975 5.66665 17C5.66665 20.1025 6.75748 22.7658 8.99581 25.0042C11.2341 27.2425 13.8975 28.3333 17 28.3333H24.0833V31.1667H17C13.1041 31.1667 9.77498 29.75 7.01248 26.9875C4.24998 24.225 2.83331 20.8958 2.83331 17C2.83331 13.1042 4.24998 9.775 7.01248 7.0125C9.77498 4.25 13.1041 2.83334 17 2.83334Z" fill="white"/>
</svg>
