<svg width="491" height="491" viewBox="0 0 491 491" fill="none" xmlns="http://www.w3.org/2000/svg">
<g clip-path="url(#clip0)">
<path d="M472.328 216.529L245.213 443.665L18.098 216.529C13.861 212.436 7.108 212.554 3.015 216.791C-0.977004 220.925 -0.977004 227.478 3.015 231.611L237.682 466.278C241.847 470.442 248.599 470.442 252.765 466.278L487.432 231.611C491.525 227.374 491.407 220.621 487.17 216.528C483.036 212.535 476.483 212.535 472.349 216.528L472.328 216.529Z" fill="white"/>
<path d="M472.328 24.5289L245.213 251.665L18.098 24.5289C13.861 20.4359 7.108 20.5539 3.015 24.7909C-0.977004 28.9249 -0.977004 35.4779 3.015 39.6119L237.682 274.279C241.847 278.443 248.599 278.443 252.765 274.279L487.432 39.6119C491.669 35.5189 491.786 28.7669 487.694 24.5289C483.601 20.2919 476.849 20.1749 472.611 24.2669C472.522 24.3529 472.435 24.4399 472.349 24.5289H472.328Z" fill="white"/>
<path d="M245.213 469.415C242.382 469.42 239.665 468.3 237.661 466.3L2.99389 231.633C-1.09911 227.396 -0.981113 220.643 3.25589 216.55C7.38989 212.558 13.9429 212.558 18.0759 216.55L245.212 443.665L472.327 216.529C476.564 212.436 483.317 212.554 487.41 216.791C491.403 220.925 491.403 227.478 487.41 231.612L252.744 466.279C250.748 468.28 248.04 469.408 245.213 469.415Z" fill="white"/>
<path d="M245.213 277.415C242.382 277.42 239.665 276.3 237.661 274.3L2.99389 39.6329C-1.09911 35.3959 -0.981113 28.6429 3.25589 24.5499C7.38989 20.5579 13.9429 20.5579 18.0769 24.5499L245.213 251.665L472.328 24.5289C476.421 20.2919 483.173 20.1749 487.411 24.2669C491.649 28.3589 491.765 35.1119 487.673 39.3499C487.587 39.4389 487.5 39.5259 487.411 39.6119L252.744 274.279C250.748 276.28 248.04 277.408 245.213 277.415Z" fill="white"/>
</g>
<defs>
<clipPath id="clip0">
<rect width="490.688" height="490.688" fill="white"/>
</clipPath>
</defs>
</svg>
